<?xml version="1.0" encoding="UTF-8" standalone="no"?>
<!DOCTYPE svg PUBLIC "-//W3C//DTD SVG 1.1//EN"
 "http://www.w3.org/Graphics/SVG/1.1/DTD/svg11.dtd">
<!-- Generated by graphviz version 2.40.1 (20161225.0304)
 -->
<!-- Title: G Pages: 1 -->
<svg width="1470pt" height="456pt"
 viewBox="0.00 0.00 1470.02 455.58" xmlns="http://www.w3.org/2000/svg" xmlns:xlink="http://www.w3.org/1999/xlink">
<g id="graph0" class="graph" transform="scale(1 1) rotate(0) translate(4 451.5771)">
<title>G</title>
<polygon fill="#ffffff" stroke="transparent" points="-4,4 -4,-451.5771 1466.015,-451.5771 1466.015,4 -4,4"/>
<g id="clust1" class="cluster">
<title>cluster_arguments</title>
<polygon fill="#3399ff" stroke="#000000" points="8,-92.9117 8,-181.8234 1022,-181.8234 1022,-92.9117 8,-92.9117"/>
<text text-anchor="middle" x="515" y="-166.6234" font-family="Times,serif" font-size="14.00" fill="#000000">Arguments</text>
</g>
<!-- api -->
<g id="node1" class="node">
<title>api</title>
<ellipse fill="none" stroke="#000000" cx="961" cy="-126.3675" rx="52.6104" ry="25.4118"/>
<text text-anchor="middle" x="961" y="-129.1675" font-family="Times,serif" font-size="14.00" fill="#000000">api</text>
<text text-anchor="middle" x="961" y="-115.1675" font-family="Times,serif" font-size="14.00" fill="#000000">(Ovh\Api)</text>
</g>
<!-- template -->
<g id="node2" class="node">
<title>template</title>
<ellipse fill="none" stroke="#000000" cx="736" cy="-126.3675" rx="154.5167" ry="25.4118"/>
<text text-anchor="middle" x="736" y="-129.1675" font-family="Times,serif" font-size="14.00" fill="#000000">template</text>
<text text-anchor="middle" x="736" y="-115.1675" font-family="Times,serif" font-size="14.00" fill="#000000">(Innmind\Ark\Forge\Ovh\Template)</text>
</g>
<!-- sshFolder -->
<g id="node3" class="node">
<title>sshFolder</title>
<ellipse fill="none" stroke="#000000" cx="139" cy="-126.3675" rx="122.8302" ry="25.4118"/>
<text text-anchor="middle" x="139" y="-129.1675" font-family="Times,serif" font-size="14.00" fill="#000000">sshFolder</text>
<text text-anchor="middle" x="139" y="-115.1675" font-family="Times,serif" font-size="14.00" fill="#000000">(Innmind\Url\PathInterface)</text>
</g>
<!-- server -->
<g id="node4" class="node">
<title>server</title>
<ellipse fill="none" stroke="#000000" cx="422" cy="-126.3675" rx="141.753" ry="25.4118"/>
<text text-anchor="middle" x="422" y="-129.1675" font-family="Times,serif" font-size="14.00" fill="#000000">server</text>
<text text-anchor="middle" x="422" y="-115.1675" font-family="Times,serif" font-size="14.00" fill="#000000">(Innmind\Server\Control\Server)</text>
</g>
<!-- defaultServer -->
<g id="node11" class="node">
<title>defaultServer</title>
<ellipse fill="none" stroke="#000000" cx="422" cy="-25.4558" rx="197.9345" ry="25.4118"/>
<text text-anchor="middle" x="422" y="-28.2558" font-family="Times,serif" font-size="14.00" fill="#000000">defaultServer</text>
<text text-anchor="middle" x="422" y="-14.2558" font-family="Times,serif" font-size="14.00" fill="#000000">(Innmind\Server\Control\ServerFactory::build)</text>
</g>
<!-- server&#45;&gt;defaultServer -->
<g id="edge12" class="edge">
<title>server&#45;&gt;defaultServer</title>
<path fill="none" stroke="#000000" stroke-dasharray="1,5" d="M422,-100.9033C422,-88.8326 422,-74.209 422,-61.062"/>
<polygon fill="#000000" stroke="#000000" points="425.5001,-60.9119 422,-50.912 418.5001,-60.912 425.5001,-60.9119"/>
<text text-anchor="middle" x="451.3535" y="-71.7117" font-family="Times,serif" font-size="14.00" fill="#000000">defaults to</text>
</g>
<!-- ark -->
<g id="node5" class="node">
<title>ark</title>
<polygon fill="#00ff00" stroke="#000000" points="1004.417,-425.8244 896,-447.5423 787.583,-425.8244 787.6842,-390.6842 1004.3158,-390.6842 1004.417,-425.8244"/>
<text text-anchor="middle" x="896" y="-418.9119" font-family="Times,serif" font-size="14.00" fill="#000000">ark</text>
<text text-anchor="middle" x="896" y="-404.9119" font-family="Times,serif" font-size="14.00" fill="#000000">(Innmind\Ark\Ark)</text>
</g>
<!-- forge -->
<g id="node6" class="node">
<title>forge</title>
<ellipse fill="none" stroke="#000000" cx="750" cy="-322.1909" rx="115.1398" ry="25.4118"/>
<text text-anchor="middle" x="750" y="-324.9909" font-family="Times,serif" font-size="14.00" fill="#000000">forge</text>
<text text-anchor="middle" x="750" y="-310.9909" font-family="Times,serif" font-size="14.00" fill="#000000">(Innmind\Ark\Forge\Ovh)</text>
</g>
<!-- ark&#45;&gt;forge -->
<g id="edge1" class="edge">
<title>ark&#45;&gt;forge</title>
<path fill="none" stroke="#000000" d="M856.1049,-390.4476C837.6544,-378.5785 815.6243,-364.4067 796.4316,-352.0601"/>
<polygon fill="#000000" stroke="#000000" points="798.1397,-348.9973 787.836,-346.5306 794.3526,-354.8844 798.1397,-348.9973"/>
</g>
<!-- array -->
<g id="node7" class="node">
<title>array</title>
<ellipse fill="none" stroke="#000000" cx="1043" cy="-322.1909" rx="159.5449" ry="25.4118"/>
<text text-anchor="middle" x="1043" y="-324.9909" font-family="Times,serif" font-size="14.00" fill="#000000">array</text>
<text text-anchor="middle" x="1043" y="-310.9909" font-family="Times,serif" font-size="14.00" fill="#000000">(Innmind\Ark\InstallationArray\Ovh)</text>
</g>
<!-- ark&#45;&gt;array -->
<g id="edge2" class="edge">
<title>ark&#45;&gt;array</title>
<path fill="none" stroke="#000000" d="M936.1684,-390.4476C954.5241,-378.7198 976.3986,-364.7438 995.559,-352.5018"/>
<polygon fill="#000000" stroke="#000000" points="997.6067,-355.347 1004.1491,-347.0135 993.8378,-349.4482 997.6067,-355.347"/>
</g>
<!-- forge&#45;&gt;api -->
<g id="edge3" class="edge">
<title>forge&#45;&gt;api</title>
<path fill="none" stroke="#000000" d="M730.5168,-296.7944C713.8163,-271.7275 695.5676,-233.65 717,-208.8234 770.724,-146.5912 825.6926,-217.0017 900,-181.8234 912.4732,-175.9184 924.2041,-166.5944 933.9823,-157.2647"/>
<polygon fill="#000000" stroke="#000000" points="936.4645,-159.7323 941.0592,-150.1856 931.5139,-154.7833 936.4645,-159.7323"/>
</g>
<!-- ovh_available -->
<g id="node8" class="node">
<title>ovh_available</title>
<ellipse fill="none" stroke="#000000" cx="904" cy="-234.2792" rx="178.2327" ry="25.4118"/>
<text text-anchor="middle" x="904" y="-237.0792" font-family="Times,serif" font-size="14.00" fill="#000000">ovh.available</text>
<text text-anchor="middle" x="904" y="-223.0792" font-family="Times,serif" font-size="14.00" fill="#000000">(Innmind\Ark\Forge\Ovh\Available\State)</text>
</g>
<!-- forge&#45;&gt;ovh_available -->
<g id="edge4" class="edge">
<title>forge&#45;&gt;ovh_available</title>
<path fill="none" stroke="#000000" d="M791.6746,-298.4007C810.2139,-287.8175 832.2413,-275.243 851.8577,-264.0449"/>
<polygon fill="#000000" stroke="#000000" points="853.7304,-267.0061 860.6798,-259.0088 850.26,-260.9269 853.7304,-267.0061"/>
</g>
<!-- ovh_bootstrap -->
<g id="node9" class="node">
<title>ovh_bootstrap</title>
<ellipse fill="none" stroke="#000000" cx="476" cy="-234.2792" rx="194.0223" ry="25.4118"/>
<text text-anchor="middle" x="476" y="-237.0792" font-family="Times,serif" font-size="14.00" fill="#000000">ovh.bootstrap</text>
<text text-anchor="middle" x="476" y="-223.0792" font-family="Times,serif" font-size="14.00" fill="#000000">(Innmind\Ark\Forge\Ovh\Bootstrap\Reinstall)</text>
</g>
<!-- forge&#45;&gt;ovh_bootstrap -->
<g id="edge5" class="edge">
<title>forge&#45;&gt;ovh_bootstrap</title>
<path fill="none" stroke="#000000" d="M684.3702,-301.1339C646.9272,-289.1205 599.6163,-273.941 559.5427,-261.0835"/>
<polygon fill="#000000" stroke="#000000" points="560.3786,-257.676 549.7874,-257.9536 558.24,-264.3414 560.3786,-257.676"/>
</g>
<!-- ovh_dispose -->
<g id="node10" class="node">
<title>ovh_dispose</title>
<ellipse fill="none" stroke="#000000" cx="1271" cy="-234.2792" rx="170.7482" ry="25.4118"/>
<text text-anchor="middle" x="1271" y="-237.0792" font-family="Times,serif" font-size="14.00" fill="#000000">ovh.dispose</text>
<text text-anchor="middle" x="1271" y="-223.0792" font-family="Times,serif" font-size="14.00" fill="#000000">(Innmind\Ark\Forge\Ovh\Dispose\Stop)</text>
</g>
<!-- forge&#45;&gt;ovh_dispose -->
<g id="edge6" class="edge">
<title>forge&#45;&gt;ovh_dispose</title>
<path fill="none" stroke="#000000" d="M833.273,-304.5428C846.8639,-301.8218 860.809,-299.1253 874,-296.7351 961.714,-280.841 1060.7598,-265.2553 1137.9789,-253.629"/>
<polygon fill="#000000" stroke="#000000" points="1138.8756,-257.0337 1148.2448,-252.0873 1137.8359,-250.1113 1138.8756,-257.0337"/>
</g>
<!-- array&#45;&gt;api -->
<g id="edge14" class="edge">
<title>array&#45;&gt;api</title>
<path fill="none" stroke="#000000" d="M1182.6136,-309.76C1293.6749,-298.4202 1433.3202,-280.3272 1451,-259.7351 1465.7399,-242.5672 1465.6123,-226.1 1451,-208.8234 1423.5688,-176.3905 1148.2899,-145.0543 1022.7826,-132.326"/>
<polygon fill="#000000" stroke="#000000" points="1022.8619,-128.8164 1012.5616,-131.2971 1022.1607,-135.7812 1022.8619,-128.8164"/>
</g>
<!-- array&#45;&gt;ovh_available -->
<g id="edge15" class="edge">
<title>array&#45;&gt;ovh_available</title>
<path fill="none" stroke="#000000" d="M1003.9108,-297.4687C987.7734,-287.2624 968.9112,-275.3328 951.9495,-264.6053"/>
<polygon fill="#000000" stroke="#000000" points="953.5998,-261.5078 943.2774,-259.1205 949.8581,-267.4238 953.5998,-261.5078"/>
</g>
<!-- ovh_available&#45;&gt;api -->
<g id="edge7" class="edge">
<title>ovh_available&#45;&gt;api</title>
<path fill="none" stroke="#000000" d="M917.5082,-208.7057C925.1588,-194.2217 934.8243,-175.9231 943.0995,-160.2566"/>
<polygon fill="#000000" stroke="#000000" points="946.2096,-161.8623 947.7854,-151.3853 940.02,-158.5928 946.2096,-161.8623"/>
</g>
<!-- ovh_bootstrap&#45;&gt;api -->
<g id="edge8" class="edge">
<title>ovh_bootstrap&#45;&gt;api</title>
<path fill="none" stroke="#000000" d="M565.2608,-211.6467C601.821,-203.3089 644.6992,-194.7135 684,-189.8234 707.8327,-186.8579 877.7635,-190.8969 900,-181.8234 912.9888,-176.5234 924.9735,-167.1524 934.8191,-157.6048"/>
<polygon fill="#000000" stroke="#000000" points="937.4346,-159.9359 941.9122,-150.3337 932.4239,-155.0478 937.4346,-159.9359"/>
</g>
<!-- ovh_bootstrap&#45;&gt;template -->
<g id="edge10" class="edge">
<title>ovh_bootstrap&#45;&gt;template</title>
<path fill="none" stroke="#000000" d="M534.6733,-209.9272C574.7753,-193.283 627.9927,-171.1954 669.6411,-153.9094"/>
<polygon fill="#000000" stroke="#000000" points="670.9872,-157.1403 678.8816,-150.0742 668.3038,-150.6751 670.9872,-157.1403"/>
</g>
<!-- ovh_bootstrap&#45;&gt;sshFolder -->
<g id="edge11" class="edge">
<title>ovh_bootstrap&#45;&gt;sshFolder</title>
<path fill="none" stroke="#000000" d="M377.9033,-212.2954C343.7506,-203.8223 305.3888,-193.3769 271,-181.8234 246.9808,-173.7537 221.1605,-163.3177 198.782,-153.6793"/>
<polygon fill="#000000" stroke="#000000" points="199.9833,-150.3852 189.4171,-149.6066 197.1916,-156.8044 199.9833,-150.3852"/>
</g>
<!-- ovh_bootstrap&#45;&gt;server -->
<g id="edge9" class="edge">
<title>ovh_bootstrap&#45;&gt;server</title>
<path fill="none" stroke="#000000" d="M463.2028,-208.7057C456.0742,-194.4603 447.0992,-176.5249 439.3469,-161.0329"/>
<polygon fill="#000000" stroke="#000000" points="442.3105,-159.1341 434.7054,-151.7575 436.0505,-162.2666 442.3105,-159.1341"/>
</g>
<!-- ovh_dispose&#45;&gt;api -->
<g id="edge13" class="edge">
<title>ovh_dispose&#45;&gt;api</title>
<path fill="none" stroke="#000000" d="M1203.7346,-210.864C1146.6882,-191.006 1066.0008,-162.9185 1013.5893,-144.674"/>
<polygon fill="#000000" stroke="#000000" points="1014.4167,-141.2561 1003.8219,-141.2739 1012.1154,-147.867 1014.4167,-141.2561"/>
</g>
</g>
</svg>
